# xmcd
# 
# Track frame offsets:
#     150
#     14220
#     28047
#     46399
#     62690
#     85982
#     98077
#     113382
#     125904
#     129862
#     143416
#     156867
#     173224
#     192973
#     204923
#     219784
#     238745
#     250031
#     252259
#     265133
# 
# Disc length: 3736
# 
# Revision: 2
# Processed by: cddbd v1.5.2PL0 Copyright (c) Steve Scherf et al.
# Submitted via: fre:ac v1.0.31
# 
DISCID=0f0e9614
DTITLE=Fernando Delgadillo - Variaciones De La Canción Informal
DYEAR=1990
DGENRE=Canción Informal
TTITLE0=Cuento
TTITLE1=La Palabra
TTITLE2=¿Qué Dirán Venideros?
TTITLE3=El Saltamontes
TTITLE4=Carta A Francia
TTITLE5=Hoy En Tu Cumpleaños
TTITLE6=Buenas Intenciones
TTITLE7=Las Bodas De Erefil
TTITLE8=Aviso Importante
TTITLE9=El Abordaje
TTITLE10=Hoy Ten Miedo De Mí
TTITLE11=La Pelea
TTITLE12=A Mi Cerrada
TTITLE13=Ese Duende Tu Recuerdo
TTITLE14=La Bañera
TTITLE15=De Pelo Largo
TTITLE16=A El Hada De Mis Sueños
TTITLE17=Segundo Aviso Importante
TTITLE18=Amor De Voceador
TTITLE19=Conclusiones En Rag
EXTD=
EXTT0=
EXTT1=
EXTT2=
EXTT3=
EXTT4=
EXTT5=
EXTT6=
EXTT7=
EXTT8=
EXTT9=
EXTT10=
EXTT11=
EXTT12=
EXTT13=
EXTT14=
EXTT15=
EXTT16=
EXTT17=
EXTT18=
EXTT19=
PLAYORDER=
